<?xml version="1.0" standalone="no"?>
<!DOCTYPE svg PUBLIC "-//W3C//DTD SVG 20010904//EN"
 "http://www.w3.org/TR/2001/REC-SVG-20010904/DTD/svg10.dtd">
<svg version="1.0" xmlns="http://www.w3.org/2000/svg"
 width="512.000000pt" height="512.000000pt" viewBox="0 0 512.000000 512.000000"
 preserveAspectRatio="xMidYMid meet">

<g transform="translate(0.000000,512.000000) scale(0.100000,-0.100000)"
fill="#000000" stroke="none">
<path d="M4835 5096 c-307 -81 -755 -334 -1266 -715 l-167 -124 117 -78 c141
-94 292 -225 332 -287 37 -58 49 -101 49 -173 0 -70 -18 -123 -72 -208 -355
-566 -1554 -1773 -2175 -2190 -125 -84 -168 -102 -247 -102 -73 -1 -149 28
-217 81 -72 57 -201 223 -296 379 l-21 34 -122 -164 c-370 -497 -639 -976
-715 -1274 -10 -38 -19 -105 -19 -147 -1 -67 2 -80 21 -100 33 -32 115 -35
228 -9 488 116 1323 680 2248 1519 198 180 775 753 958 952 971 1058 1625
2060 1633 2497 1 73 -2 85 -21 105 -34 33 -132 35 -248 4z"/>
<path d="M2266 4165 c-245 -40 -473 -133 -671 -273 -103 -73 -284 -254 -358
-358 -109 -154 -196 -343 -241 -521 -35 -139 -46 -234 -46 -398 0 -339 101
-649 298 -915 67 -90 140 -170 156 -170 18 0 193 122 321 225 488 392 1192
1091 1591 1580 121 147 231 297 261 353 l18 34 -71 67 c-185 173 -466 313
-739 367 -114 22 -405 27 -519 9z"/>
<path d="M4094 2732 c-484 -573 -1151 -1242 -1727 -1731 -119 -102 -144 -127
-129 -132 87 -32 424 -44 577 -20 565 88 1033 427 1285 930 128 256 188 537
177 825 -5 137 -25 296 -36 296 -3 0 -70 -76 -147 -168z"/>
</g>
</svg>
