<?xml version="1.0" standalone="no"?>
<!DOCTYPE svg PUBLIC "-//W3C//DTD SVG 20010904//EN"
 "http://www.w3.org/TR/2001/REC-SVG-20010904/DTD/svg10.dtd">
<svg version="1.0" xmlns="http://www.w3.org/2000/svg"
 width="512.000000pt" height="512.000000pt" viewBox="0 0 512.000000 512.000000"
 preserveAspectRatio="xMidYMid meet">

<g transform="translate(0.000000,512.000000) scale(0.100000,-0.100000)"
fill="#000000" stroke="none">
<path d="M4705 5096 c-112 -30 -165 -51 -303 -120 -243 -122 -556 -327 -876
-575 l-114 -89 -89 38 c-259 111 -492 159 -775 160 -324 0 -610 -68 -890 -211
-901 -463 -1297 -1526 -920 -2467 23 -57 46 -110 50 -119 7 -12 -23 -59 -127
-197 -316 -420 -535 -786 -616 -1029 -96 -289 -26 -467 188 -484 241 -20 690
211 1281 657 l188 142 127 -50 c356 -141 730 -173 1106 -97 722 146 1311 705
1495 1419 48 188 63 324 57 541 -6 266 -43 445 -139 683 -29 71 -39 108 -33
117 6 7 69 91 142 187 242 320 420 597 529 823 75 155 111 258 127 366 37 258
-126 381 -408 305z m209 -186 c18 -19 10 -111 -18 -195 -55 -165 -209 -446
-383 -698 -109 -159 -302 -417 -312 -417 -4 0 -29 31 -54 69 -111 166 -298
358 -469 478 -43 30 -78 56 -78 58 0 7 296 225 415 307 431 296 826 471 899
398z m-2234 -600 c547 -49 1019 -327 1321 -778 l69 -104 -40 -51 c-66 -84
-357 -421 -480 -557 -522 -578 -1218 -1247 -1763 -1693 l-107 -89 -53 33
c-303 192 -553 478 -689 791 -99 230 -143 445 -142 703 0 307 58 543 200 814
273 525 818 885 1407 930 149 12 152 12 277 1z m1510 -1147 c131 -350 138
-762 20 -1138 -41 -132 -154 -357 -238 -475 -86 -122 -290 -326 -412 -412
-404 -286 -894 -388 -1378 -288 -85 18 -256 70 -288 88 -10 6 37 51 158 154
678 574 1422 1317 1971 1970 73 87 135 157 139 158 4 0 16 -26 28 -57z m-3004
-1993 c60 -58 149 -135 198 -170 48 -36 97 -72 108 -80 19 -15 13 -21 -129
-126 -482 -360 -908 -593 -1090 -598 -66 -1 -78 11 -77 77 5 182 241 613 597
1088 l109 147 88 -117 c48 -64 137 -163 196 -221z"/>
</g>
</svg>
