<?xml version="1.0" standalone="no"?>
<!DOCTYPE svg PUBLIC "-//W3C//DTD SVG 20010904//EN"
 "http://www.w3.org/TR/2001/REC-SVG-20010904/DTD/svg10.dtd">
<svg version="1.0" xmlns="http://www.w3.org/2000/svg"
 width="512.000000pt" height="512.000000pt" viewBox="0 0 512.000000 512.000000"
 preserveAspectRatio="xMidYMid meet">

<g transform="translate(0.000000,512.000000) scale(0.100000,-0.100000)"
fill="#000000" stroke="none">
<path d="M4100 4185 c-183 -26 -576 -116 -627 -144 -8 -4 21 -30 78 -70 49
-35 120 -92 157 -127 l68 -62 70 16 c49 11 120 16 244 16 162 1 180 -1 234
-23 68 -27 136 -86 161 -138 90 -190 -284 -613 -1028 -1161 -397 -293 -652
-451 -1028 -637 -762 -376 -1489 -565 -1732 -450 -72 34 -110 143 -89 257 21
114 124 290 244 414 l39 41 -21 103 c-12 57 -24 147 -27 202 -3 54 -9 98 -13
98 -15 0 -308 -309 -390 -411 -162 -202 -265 -374 -322 -542 -28 -81 -32 -106
-32 -202 -1 -101 1 -115 28 -173 53 -115 166 -198 334 -244 67 -19 104 -22
297 -22 234 -1 323 9 555 60 909 201 2034 788 2845 1485 382 327 684 687 811
966 61 133 79 207 79 323 0 94 -3 111 -29 167 -54 117 -166 200 -334 245 -102
27 -415 34 -572 13z"/>
<path d="M2310 4105 c-322 -53 -620 -206 -855 -440 -231 -230 -381 -522 -437
-849 -17 -103 -19 -149 -15 -306 7 -251 44 -410 148 -627 40 -83 137 -242 169
-276 4 -5 63 8 131 28 510 149 1111 433 1564 739 294 199 581 416 815 617 178
152 177 151 161 197 -46 131 -187 338 -326 477 -211 211 -463 350 -765 422
-89 21 -135 25 -305 29 -141 2 -225 -1 -285 -11z m-261 -511 c23 -30 27 -71 8
-94 -7 -9 -43 -37 -82 -62 -251 -166 -414 -428 -460 -738 -12 -80 -19 -99 -40
-117 -34 -30 -70 -29 -102 3 -25 25 -26 30 -20 102 14 178 88 382 200 550 77
115 221 259 333 332 91 59 131 65 163 24z"/>
<path d="M4056 2191 c-20 -32 -432 -323 -665 -471 -355 -223 -862 -485 -1181
-610 -47 -18 -89 -37 -94 -41 -11 -10 46 -25 189 -50 103 -18 146 -21 305 -16
262 8 418 46 645 158 303 150 549 394 700 694 48 96 125 302 125 334 0 13 -17
15 -24 2z"/>
</g>
</svg>
